<mxfile host="app.diagrams.net" modified="2025-03-03T09:08:23.202Z" agent="Mozilla/5.0 (Windows NT 10.0; Win64; x64) AppleWebKit/537.36 (KHTML, like Gecko) Chrome/133.0.0.0 Safari/537.36" version="22.1.21" etag="CHCgh-bpQynrdmZhRRr3" type="github">
  <diagram name="Страница — 1" id="RJFk-U6AwB0fZAoIYu2r">
    <mxGraphModel>
      <root>
        <mxCell id="0" />
        <mxCell id="1" parent="0" />
      </root>
    </mxGraphModel>
  </diagram>
</mxfile>
